<?xml version="1.0" encoding="UTF-8"?>
<svg xmlns="http://www.w3.org/2000/svg" version="1.1" width="100" height="100" viewBox="0 0 100 100"><rect x="0" y="0" width="100" height="100" fill="#ffffff"/><g transform="scale(3.448)"><g transform="translate(0,0)"><path fill-rule="evenodd" d="M9 0L9 1L11 1L11 2L9 2L9 3L8 3L8 5L9 5L9 6L8 6L8 7L9 7L9 9L8 9L8 8L5 8L5 9L8 9L8 10L4 10L4 9L2 9L2 8L0 8L0 9L2 9L2 10L1 10L1 12L2 12L2 10L4 10L4 11L3 11L3 12L5 12L5 11L10 11L10 12L6 12L6 13L9 13L9 15L8 15L8 14L4 14L4 15L1 15L1 14L0 14L0 21L1 21L1 19L2 19L2 20L3 20L3 21L4 21L4 19L8 19L8 16L10 16L10 15L11 15L11 12L12 12L12 11L13 11L13 10L14 10L14 8L13 8L13 6L12 6L12 9L13 9L13 10L11 10L11 8L10 8L10 7L11 7L11 4L12 4L12 5L13 5L13 4L14 4L14 5L16 5L16 7L17 7L17 4L18 4L18 7L19 7L19 5L20 5L20 4L21 4L21 1L20 1L20 2L18 2L18 0L16 0L16 2L15 2L15 1L14 1L14 0L13 0L13 1L12 1L12 0ZM13 1L13 2L12 2L12 4L13 4L13 3L14 3L14 4L17 4L17 3L18 3L18 4L19 4L19 3L18 3L18 2L17 2L17 3L14 3L14 1ZM9 3L9 5L10 5L10 3ZM9 6L9 7L10 7L10 6ZM14 6L14 7L15 7L15 6ZM20 6L20 7L21 7L21 6ZM15 8L15 13L14 13L14 12L13 12L13 13L12 13L12 14L15 14L15 16L14 16L14 17L15 17L15 18L12 18L12 19L11 19L11 20L10 20L10 19L9 19L9 21L8 21L8 20L6 20L6 21L8 21L8 24L9 24L9 25L10 25L10 27L8 27L8 29L13 29L13 28L12 28L12 27L14 27L14 28L15 28L15 27L16 27L16 28L17 28L17 29L18 29L18 28L17 28L17 27L19 27L19 28L20 28L20 27L21 27L21 25L23 25L23 26L22 26L22 28L23 28L23 26L24 26L24 27L26 27L26 28L24 28L24 29L27 29L27 27L28 27L28 28L29 28L29 27L28 27L28 26L29 26L29 25L28 25L28 24L29 24L29 23L27 23L27 22L26 22L26 21L29 21L29 20L26 20L26 21L25 21L25 19L22 19L22 20L19 20L19 19L21 19L21 18L20 18L20 17L22 17L22 18L23 18L23 17L22 17L22 16L24 16L24 15L22 15L22 14L23 14L23 10L22 10L22 12L21 12L21 15L20 15L20 17L18 17L18 16L17 16L17 17L18 17L18 18L16 18L16 17L15 17L15 16L16 16L16 15L17 15L17 14L18 14L18 15L19 15L19 14L20 14L20 12L19 12L19 11L18 11L18 12L19 12L19 13L17 13L17 10L21 10L21 8L20 8L20 9L18 9L18 8ZM24 8L24 12L25 12L25 9L26 9L26 10L28 10L28 9L26 9L26 8ZM9 9L9 10L10 10L10 11L11 11L11 10L10 10L10 9ZM16 9L16 10L17 10L17 9ZM28 12L28 13L26 13L26 17L24 17L24 18L28 18L28 19L29 19L29 17L27 17L27 14L29 14L29 12ZM2 13L2 14L3 14L3 13ZM15 13L15 14L16 14L16 13ZM24 13L24 14L25 14L25 13ZM6 15L6 16L3 16L3 18L2 18L2 19L3 19L3 18L5 18L5 17L6 17L6 18L7 18L7 17L6 17L6 16L8 16L8 15ZM12 15L12 17L13 17L13 15ZM21 15L21 16L22 16L22 15ZM28 15L28 16L29 16L29 15ZM1 16L1 17L2 17L2 16ZM10 17L10 18L11 18L11 17ZM18 18L18 19L17 19L17 20L15 20L15 21L13 21L13 20L14 20L14 19L12 19L12 21L9 21L9 23L10 23L10 24L12 24L12 23L13 23L13 25L11 25L11 26L14 26L14 27L15 27L15 26L14 26L14 25L16 25L16 24L15 24L15 21L16 21L16 22L17 22L17 26L18 26L18 25L19 25L19 27L20 27L20 25L19 25L19 24L20 24L20 23L18 23L18 21L19 21L19 20L18 20L18 19L19 19L19 18ZM17 20L17 21L18 21L18 20ZM12 21L12 22L13 22L13 21ZM21 21L21 24L24 24L24 21ZM10 22L10 23L11 23L11 22ZM22 22L22 23L23 23L23 22ZM25 23L25 25L24 25L24 26L26 26L26 27L27 27L27 26L28 26L28 25L27 25L27 23ZM10 27L10 28L11 28L11 27ZM0 0L0 7L7 7L7 0ZM1 1L1 6L6 6L6 1ZM2 2L2 5L5 5L5 2ZM22 0L22 7L29 7L29 0ZM23 1L23 6L28 6L28 1ZM24 2L24 5L27 5L27 2ZM0 22L0 29L7 29L7 22ZM1 23L1 28L6 28L6 23ZM2 24L2 27L5 27L5 24Z" fill="#000000"/></g></g></svg>
